<?xml version="1.0" encoding="iso-8859-1"?>
<!-- Generator: Adobe Illustrator 19.0.0, SVG Export Plug-In . SVG Version: 6.00 Build 0)  -->
<svg version="1.1" id="Layer_1" xmlns="http://www.w3.org/2000/svg" xmlns:xlink="http://www.w3.org/1999/xlink" x="0px" y="0px"
	 viewBox="0 0 511.6 511.6" style="enable-background:new 0 0 511.6 511.6;" xml:space="preserve">
<path style="fill:#E6E9ED;" d="M511.6,95.924V42.638c0-11.788-9.539-21.327-21.311-21.327H21.32C9.547,21.311,0,30.85,0,42.638
	v53.286H511.6z"/>
<path style="fill:#ED5564;" d="M42.639,42.638c0,5.886-4.771,10.647-10.664,10.647c-5.886,0-10.655-4.762-10.655-10.647
	c0-5.887,4.77-10.664,10.655-10.664C37.868,31.974,42.639,36.751,42.639,42.638z"/>
<path style="fill:#FFCE54;" d="M74.613,42.638c0,5.886-4.77,10.647-10.655,10.647c-5.887,0-10.664-4.762-10.664-10.647
	c0-5.887,4.777-10.664,10.664-10.664C69.844,31.974,74.613,36.751,74.613,42.638z"/>
<path style="fill:#A0D468;" d="M106.588,42.638c0,5.886-4.77,10.647-10.655,10.647S85.27,48.524,85.27,42.638
	c0-5.887,4.777-10.664,10.663-10.664S106.588,36.751,106.588,42.638z"/>
<rect y="63.949" style="fill:#F5F7FA;" width="511.6" height="426.34"/>
<g>
	<polygon style="fill:#4A89DC;" points="113.247,133.285 93.013,153.52 255.028,262.794 334.145,183.653 	"/>
	<polygon style="fill:#4A89DC;" points="399.641,419.671 379.391,439.905 270.117,277.891 349.258,198.766 	"/>
	<polygon style="fill:#4A89DC;" points="213.599,334.394 145.769,296.704 85.48,311.786 153.31,364.542 	"/>
	<polygon style="fill:#4A89DC;" points="198.532,319.327 236.214,387.15 221.14,447.446 168.384,379.609 	"/>
</g>
<path style="fill:#5D9CEC;" d="M183.458,394.691l-45.223-45.23l241.171-241.172c0,0,23.653-6.495,37.674,7.541
	c14.051,14.036,7.557,37.689,7.557,37.689L183.458,394.691z"/>
<path style="fill:#4A89DC;" d="M179.688,368.305l-15.074-15.066l-11.296,11.288c-0.008,0.016-0.008,0.016-0.008,0.016
	c-4.161,4.153-4.161,10.913,0,15.066c4.161,4.169,10.913,4.169,15.074,0l0,0L179.688,368.305z"/>
<g>
</g>
<g>
</g>
<g>
</g>
<g>
</g>
<g>
</g>
<g>
</g>
<g>
</g>
<g>
</g>
<g>
</g>
<g>
</g>
<g>
</g>
<g>
</g>
<g>
</g>
<g>
</g>
<g>
</g>
</svg>
