<?xml version="1.0" standalone="no"?>
<!DOCTYPE svg PUBLIC "-//W3C//DTD SVG 20010904//EN"
 "http://www.w3.org/TR/2001/REC-SVG-20010904/DTD/svg10.dtd">
<svg version="1.0" xmlns="http://www.w3.org/2000/svg"
 width="431.000000pt" height="103.000000pt" viewBox="0 0 431.000000 103.000000"
 preserveAspectRatio="xMidYMid meet">

<g transform="translate(0.000000,103.000000) scale(0.100000,-0.100000)"
fill="#000000" stroke="none">
<path d="M200 1012 c-18 -14 -24 -32 -28 -75 l-4 -57 -38 0 c-56 0 -99 -19
-115 -51 -11 -20 -15 -62 -15 -146 0 -103 3 -124 22 -163 29 -56 78 -83 132
-75 40 6 146 53 146 65 0 3 -40 42 -89 86 -117 103 -118 118 -6 69 31 -14 69
-24 83 -23 19 2 26 -1 24 -11 -4 -20 18 -31 39 -20 25 13 32 11 25 -8 -13 -32
17 -31 68 3 42 28 106 46 106 29 0 -21 -30 -56 -71 -84 -53 -37 -60 -50 -29
-58 24 -6 25 -16 5 -33 -21 -18 -19 -40 5 -40 23 0 27 -18 5 -26 -12 -5 -15
-22 -13 -85 2 -43 -1 -80 -5 -81 -5 -2 -29 47 -54 107 -24 61 -47 112 -49 114
-10 10 -184 -119 -251 -185 -83 -82 -100 -114 -82 -156 12 -28 54 -58 82 -58
8 0 22 -11 31 -25 10 -15 26 -25 41 -25 24 0 55 23 55 41 0 5 52 9 118 9 118
0 119 0 130 -26 10 -21 18 -25 45 -22 21 2 35 10 42 25 6 13 22 24 43 28 18 3
42 15 53 26 18 18 19 36 19 382 -1 281 -4 366 -14 379 -17 23 -59 38 -105 38
l-39 0 -4 57 c-7 85 -22 93 -168 93 -99 0 -121 -3 -140 -18z m268 -79 l3 -53
-130 0 -131 0 0 48 c0 27 3 52 7 56 4 3 61 5 127 4 l121 -3 3 -52z"/>
</g>
</svg>
