<?xml version="1.0" standalone="no"?>
<!DOCTYPE svg PUBLIC "-//W3C//DTD SVG 20010904//EN"
 "http://www.w3.org/TR/2001/REC-SVG-20010904/DTD/svg10.dtd">
<svg version="1.0" xmlns="http://www.w3.org/2000/svg"
 width="431.000000pt" height="103.000000pt" viewBox="0 0 431.000000 103.000000"
 preserveAspectRatio="xMidYMid meet">

<g transform="translate(0.000000,103.000000) scale(0.100000,-0.100000)"
fill="#000000" stroke="none">
<path d="M200 1012 c-18 -14 -24 -32 -28 -75 l-4 -57 -38 0 c-56 0 -99 -19
-115 -51 -11 -20 -15 -62 -15 -146 0 -103 3 -124 22 -163 29 -56 78 -83 132
-75 40 6 146 53 146 65 0 3 -40 42 -89 86 -117 103 -118 118 -6 69 31 -14 69
-24 83 -23 19 2 26 -1 24 -11 -4 -20 18 -31 39 -20 25 13 32 11 25 -8 -13 -32
17 -31 68 3 42 28 106 46 106 29 0 -21 -30 -56 -71 -84 -53 -37 -60 -50 -29
-58 24 -6 25 -16 5 -33 -21 -18 -19 -40 5 -40 23 0 27 -18 5 -26 -12 -5 -15
-22 -13 -85 2 -43 -1 -80 -5 -81 -5 -2 -29 47 -54 107 -24 61 -47 112 -49 114
-10 10 -184 -119 -251 -185 -83 -82 -100 -114 -82 -156 12 -28 54 -58 82 -58
8 0 22 -11 31 -25 10 -15 26 -25 41 -25 24 0 55 23 55 41 0 5 52 9 118 9 118
0 119 0 130 -26 10 -21 18 -25 45 -22 21 2 35 10 42 25 6 13 22 24 43 28 18 3
42 15 53 26 18 18 19 36 19 382 -1 281 -4 366 -14 379 -17 23 -59 38 -105 38
l-39 0 -4 57 c-7 85 -22 93 -168 93 -99 0 -121 -3 -140 -18z m268 -79 l3 -53
-130 0 -131 0 0 48 c0 27 3 52 7 56 4 3 61 5 127 4 l121 -3 3 -52z"/>
<path d="M956 643 c-3 -10 -26 -96 -51 -192 -26 -96 -49 -180 -52 -187 -4 -11
8 -14 51 -14 l55 0 11 40 11 40 79 0 79 0 11 -40 11 -40 55 0 c51 0 55 2 49
20 -10 31 -105 380 -105 385 0 3 -45 5 -99 5 -86 0 -100 -2 -105 -17z m133
-121 c6 -21 14 -52 17 -70 l7 -32 -52 0 c-59 0 -60 2 -35 86 19 68 48 75 63
16z"/>
<path d="M2860 584 l0 -76 -31 26 c-85 72 -199 -6 -199 -136 0 -63 24 -109 72
-138 44 -26 78 -25 122 5 34 23 36 23 36 5 0 -17 7 -20 50 -20 l50 0 0 205 0
205 -50 0 -50 0 0 -76z m-23 -130 c21 -21 24 -32 20 -62 -8 -44 -27 -64 -63
-64 -69 0 -90 122 -24 145 29 10 41 7 67 -19z"/>
<path d="M3030 455 l0 -205 50 0 50 0 0 61 0 60 42 -3 c39 -3 44 -6 75 -60
l34 -58 54 0 c30 0 55 3 55 6 0 3 -16 33 -35 65 -41 70 -42 75 -15 89 29 16
50 63 50 116 0 39 -5 51 -33 79 -43 43 -90 55 -219 55 l-108 0 0 -205z m240
85 c16 -16 18 -25 10 -40 -13 -24 -42 -32 -101 -28 -40 3 -44 6 -47 31 -6 49
3 57 63 57 42 0 60 -5 75 -20z"/>
<path d="M1411 535 c-30 -26 -31 -26 -31 -6 0 18 -6 21 -45 21 l-45 0 0 -150
0 -150 50 0 50 0 0 93 c0 106 6 117 62 117 36 0 38 1 40 35 0 19 1 41 2 48 2
24 -50 19 -83 -8z"/>
<path d="M1607 537 c-55 -33 -77 -72 -77 -133 0 -124 128 -200 240 -142 113
58 122 194 18 271 -43 32 -133 34 -181 4z m128 -82 c66 -65 -17 -171 -85 -110
-36 32 -23 113 20 128 29 10 41 7 65 -18z"/>
<path d="M2415 548 c-11 -6 -26 -18 -32 -26 -11 -14 -13 -13 -13 6 0 20 -5 22
-50 22 l-50 0 0 -150 0 -150 50 0 49 0 3 102 c3 99 4 103 29 117 24 13 29 13
53 -2 25 -17 26 -21 26 -117 l0 -100 50 0 50 0 0 105 c0 115 -13 162 -51 189
-27 18 -84 21 -114 4z"/>
<path d="M3858 544 c-34 -18 -48 -43 -48 -83 0 -42 28 -67 97 -87 63 -18 86
-31 77 -45 -9 -15 -71 -10 -84 6 -8 10 -30 15 -60 15 -43 0 -48 -2 -43 -20 9
-32 68 -77 112 -85 91 -15 167 21 177 85 8 51 -18 78 -102 105 -41 13 -69 28
-69 36 0 20 49 23 65 5 16 -20 100 -22 100 -3 -1 20 -32 54 -67 71 -40 20
-119 20 -155 0z"/>
<path d="M1912 425 c3 -121 4 -125 31 -152 38 -38 113 -40 151 -4 26 24 26 24
26 3 0 -20 5 -22 50 -22 l50 0 0 150 0 150 -50 0 -50 0 0 -90 c0 -83 -2 -93
-24 -115 -17 -16 -31 -23 -43 -18 -40 14 -43 24 -43 124 l0 99 -51 0 -51 0 4
-125z"/>
<path d="M3442 425 c3 -121 4 -125 31 -152 38 -38 113 -40 151 -4 26 24 26 24
26 3 0 -20 5 -22 50 -22 l50 0 0 150 0 150 -50 0 -50 0 0 -90 c0 -83 -2 -93
-24 -115 -17 -16 -31 -23 -43 -18 -40 14 -43 24 -43 124 l0 99 -51 0 -51 0 4
-125z"/>
</g>
</svg>
