<?xml version="1.0" standalone="no"?>
<!DOCTYPE svg PUBLIC "-//W3C//DTD SVG 20010904//EN"
 "http://www.w3.org/TR/2001/REC-SVG-20010904/DTD/svg10.dtd">
<svg version="1.0" xmlns="http://www.w3.org/2000/svg"
 width="2080.000000pt" height="2085.000000pt" viewBox="0 0 2080.000000 2085.000000"
 preserveAspectRatio="xMidYMid meet">

<g transform="translate(0.000000,2085.000000) scale(0.100000,-0.100000)"
fill="#ffffff" stroke="none">
<path d="M8625 20839 c-213 -11 -375 -33 -655 -89 -135 -27 -396 -74 -580
-105 -590 -99 -787 -143 -1105 -249 -379 -127 -632 -237 -1190 -520 -952 -483
-1272 -682 -1775 -1101 -264 -220 -408 -353 -681 -625 -342 -341 -560 -589
-818 -930 -539 -712 -918 -1426 -1286 -2425 -274 -743 -409 -1350 -484 -2172
-35 -381 -44 -619 -38 -1066 5 -425 17 -614 58 -967 175 -1496 774 -3016 1664
-4225 716 -972 1534 -1740 2427 -2278 270 -163 923 -503 1178 -615 63 -27 237
-105 385 -172 612 -277 790 -336 1268 -415 463 -77 878 -126 1372 -164 979
-76 1463 -58 2250 80 562 98 991 210 1620 420 378 127 486 169 710 279 329
161 600 325 1335 810 637 420 683 448 759 461 68 12 171 0 225 -28 17 -9 1089
-1072 2381 -2363 2171 -2170 2353 -2349 2395 -2360 102 -27 264 18 408 114
240 159 400 487 323 661 -28 64 -699 744 -2908 2950 l-1792 1790 -16 58 c-12
40 -16 86 -13 145 3 84 5 90 52 169 27 45 96 144 153 220 145 191 162 218 417
655 485 832 779 1398 993 1913 228 549 305 946 463 2385 l61 555 -26 335
c-108 1383 -228 2027 -530 2835 -316 846 -718 1610 -1199 2275 -444 615 -1023
1236 -1581 1695 -242 199 -592 447 -850 602 -280 168 -774 436 -975 528 -258
119 -966 374 -1545 558 -592 188 -689 211 -1030 242 -93 9 -316 33 -495 55
-414 50 -604 68 -865 80 -229 10 -241 10 -460 -1z m510 -1179 c627 -25 1152
-76 1660 -161 629 -105 852 -183 1585 -551 521 -261 818 -428 1130 -634 457
-302 1115 -855 1456 -1225 687 -744 1454 -2083 1745 -3046 142 -473 203 -820
239 -1358 6 -88 29 -360 51 -605 27 -288 39 -471 35 -520 -2 -41 -25 -253 -51
-470 -164 -1425 -243 -1739 -639 -2545 -220 -448 -400 -764 -761 -1330 -413
-649 -429 -669 -1005 -1223 -396 -381 -408 -390 -910 -717 -736 -479 -1037
-654 -1450 -843 -616 -282 -1115 -425 -1859 -532 -501 -72 -872 -94 -1438 -87
-839 11 -1515 108 -2183 314 -437 134 -800 295 -1428 632 -1052 564 -1335 792
-2262 1821 -324 360 -372 418 -483 587 -78 119 -406 653 -526 858 -380 645
-702 1608 -825 2465 -54 372 -61 491 -61 995 0 672 38 1189 136 1830 107 706
190 952 591 1755 651 1307 969 1718 2178 2825 298 272 453 385 945 687 272
167 446 262 595 326 122 52 646 238 965 342 835 271 1528 400 2250 418 33 1
177 -3 320 -8z"/>
</g>
</svg>
